<svg xmlns="http://www.w3.org/2000/svg" xmlns:xlink="http://www.w3.org/1999/xlink" style="enable-background:new 0 0 296.333 183.6665" width="296.333" height="183.667" x="0" y="0" version="1.1" viewBox="0 0 296.333 183.667" xml:space="preserve"><style type="text/css">.st0{opacity:.54;fill:none;stroke:#9b8579;stroke-width:8.5039;stroke-linejoin:round}.st1,.st2{fill:none;stroke-miterlimit:10}.st1{stroke:#00aeef;stroke-linejoin:bevel}.st2{display:inline;stroke:#ed1c24}.st3{opacity:.72;fill:none;stroke:#9b8579;stroke-width:8.5039}.st4,.st5{fill:none;stroke:#6d6e71}.st5{stroke:#00aeef}.st10,.st6,.st7,.st8,.st9{fill:none;stroke-width:8.5039}.st6{opacity:.18;stroke:#2e3192;stroke-linejoin:bevel;stroke-miterlimit:10}.st7,.st8,.st9{stroke-linejoin:round}.st7{opacity:.48;stroke:#2e3192;stroke-miterlimit:10}.st8{opacity:.5;stroke:#ed1c24}.st9{opacity:.59;stroke:#9b8579}.st10{opacity:.29;stroke:#2e3192;stroke-linejoin:bevel;stroke-miterlimit:10}.st11{display:none;opacity:.43}.st12{opacity:.36;stroke:#ed1c24;stroke-linejoin:round}.st12,.st13,.st14{fill:none;stroke-width:8.5039}.st13{opacity:.54;stroke:#9b8579;stroke-linecap:round;stroke-linejoin:round}.st14{opacity:.5;stroke:#00aeef;stroke-miterlimit:10}.st15{display:inline;fill:none;stroke:#ed1c24}.st16{display:none}.st17{opacity:.58;fill:none;stroke:#9b8579;stroke-width:8.5039;stroke-linejoin:round}.st18{display:inline;fill:none;stroke:#2bb673;stroke-miterlimit:10}</style><g id="Background" class="st11"><image width="1412" height="927" transform="matrix(0.242 0 0 0.2394 -18.2651 -7.6362)" xlink:href="scan1012.jpg" style="display:inline;overflow:visible"/></g><g id="_x33_-Outer"><g><path d="M25.647,185.4146c-17.3618,0-31.4868-13.9883-31.4868-31.1816V26.6743 c0-17.1934,14.125-31.1807,31.4868-31.1807h244.7065c17.3623,0,31.4873,13.9873,31.4873,31.1807v127.5586 c0,17.1934-14.125,31.1816-31.4873,31.1816H25.647z" class="st6"/><path d="M25.647,178.3276c-13.4546,0-24.4004-10.8086-24.4004-24.0947V26.6743 c0-13.2856,10.9458-24.0942,24.4004-24.0942h244.7065c13.4541,0,24.4004,10.8086,24.4004,24.0942v127.5586 c0,13.2861-10.9463,24.0947-24.4004,24.0947H25.647z" class="st10"/><path d="M122.377,178.4185l-5.7534-2.9258H25.71c-11.8916,0-21.5659-9.5371-21.5659-21.2598v-4.4443l3-4.834v-48.793 l-1.5-2.167V59.2778l1.5-2.834V35.313l-3-6.166v-2.4727c0-11.7227,9.6743-21.2598,21.5659-21.2598h244.707 c11.8906,0,21.5645,9.5371,21.5645,21.2598v2.4043l-3.166,5.834v109.25l3.166,6.334v3.7363 c0,11.7227-9.6738,21.2598-21.5645,21.2598h-13.7344l-5.166,2.9258H122.377z" class="st7"/></g></g><g id="_x32_-Inner"><g><path d="M36.7632,150.2612c-0.7817,0-1.4175-0.6357-1.4175-1.417V29.5059c0-0.7817,0.6357-1.4175,1.4175-1.4175 H257.582c0.7813,0,1.417,0.6357,1.417,1.4175v119.3384c0,0.7813-0.6357,1.417-1.417,1.417H36.7632z" class="st8"/><rect width="209.48" height="107.999" x="42.432" y="35.175" class="st12"/><rect width="195.307" height="93.826" x="49.519" y="42.261" class="st12"/><rect width="181.133" height="79.653" x="56.605" y="49.348" class="st12"/><rect width="166.96" height="65.48" x="63.691" y="56.434" class="st12"/><rect width="152.787" height="51.306" x="70.778" y="63.52" class="st12"/><rect width="138.613" height="37.133" x="77.864" y="70.607" class="st12"/><rect width="124.44" height="22.959" x="84.951" y="77.693" class="st12"/><rect width="110.267" height="8.787" x="92.037" y="84.78" class="st12"/><rect width="107.432" height="5.952" x="93.455" y="86.197" class="st12"/></g></g><g id="_x34_-Cutout"><path d="M37.2104,173.9185l-4.729-3.1582h-7.8101c-8.5967,0-15.5903-6.9932-15.5903-15.5898V28.1777 c0-8.5967,6.9937-15.5903,15.5903-15.5903h245.7642c8.5967,0,15.5908,6.9937,15.5908,15.5903v126.9927 c0,8.5967-6.9941,15.5898-15.5908,15.5898h-10.4219l-4.9375,3.1582H37.2104z" class="st14"/></g><g id="_x31_-TopPlane" opacity=".3"><path d="M23.666,44.1577c-8.9092,0-16.1572-7.2485-16.1572-16.1577s7.248-16.1577,16.1572-16.1577 c8.9097,0,16.1582,7.2485,16.1582,16.1577S32.5757,44.1577,23.666,44.1577z" class="st3"/><path d="M23.666,39.0552c-6.0957,0-11.0547-4.9595-11.0547-11.0552s4.959-11.0552,11.0547-11.0552 c6.0962,0,11.0557,4.9595,11.0557,11.0552S29.7622,39.0552,23.666,39.0552z" class="st3"/><path d="M270.2803,44.1582c-8.9082,0-16.1563-7.249-16.1563-16.1577c0-8.9092,7.248-16.1577,16.1563-16.1577 c8.9102,0,16.1582,7.2485,16.1582,16.1577C286.4385,36.9092,279.1904,44.1582,270.2803,44.1582z" class="st3"/><path d="M270.2803,39.0557c-6.0957,0-11.0547-4.959-11.0547-11.0552c0-6.0957,4.959-11.0552,11.0547-11.0552 c6.0967,0,11.0566,4.9595,11.0566,11.0552C281.3369,34.0967,276.377,39.0557,270.2803,39.0557z" class="st3"/><path d="M270.2803,171.7163c-8.9082,0-16.1563-7.249-16.1563-16.1572c0-8.9102,7.248-16.1582,16.1563-16.1582 c8.9102,0,16.1582,7.248,16.1582,16.1582C286.4385,164.4673,279.1904,171.7163,270.2803,171.7163z" class="st3"/><path d="M270.2803,166.6138c-6.0957,0-11.0547-4.959-11.0547-11.0547s4.959-11.0557,11.0547-11.0557 c6.0967,0,11.0566,4.96,11.0566,11.0557S276.377,166.6138,270.2803,166.6138z" class="st3"/><path d="M23.666,171.7163c-8.9092,0-16.1572-7.249-16.1572-16.1572c0-8.9102,7.248-16.1582,16.1572-16.1582 c8.9097,0,16.1582,7.248,16.1582,16.1582C39.8242,164.4673,32.5757,171.7163,23.666,171.7163z" class="st3"/><path d="M23.666,166.6138c-6.0957,0-11.0547-4.959-11.0547-11.0547s4.959-11.0557,11.0547-11.0557 c6.0962,0,11.0557,4.96,11.0557,11.0557S29.7622,166.6138,23.666,166.6138z" class="st3"/><rect width="283.46" height="170.08" x="6.333" y="7.667" class="st0"/><rect width="274.956" height="161.576" x="10.585" y="11.918" class="st13"/><rect width="211.842" height="151.721" x="39.824" y="16.945" class="st0"/><rect width="197.668" height="137.548" x="46.911" y="24.032" class="st0"/><rect width="183.495" height="123.374" x="53.997" y="31.118" class="st0"/><rect width="169.322" height="109.201" x="61.084" y="38.205" class="st0"/><rect width="155.148" height="95.028" x="68.17" y="45.291" class="st0"/><rect width="140.975" height="80.855" x="75.256" y="52.377" class="st0"/><rect width="126.802" height="66.681" x="82.343" y="59.464" class="st0"/><rect width="112.628" height="52.508" x="89.429" y="66.55" class="st0"/><rect width="98.455" height="38.334" x="96.516" y="73.637" class="st0"/><rect width="84.282" height="24.161" x="103.602" y="80.723" class="st0"/><rect width="70.108" height="9.988" x="110.689" y="87.81" class="st0"/><rect width="64.439" height="4.318" x="113.523" y="90.644" class="st0"/><rect width="20.722" height="87.334" x="13.999" y="49" class="st17"/><rect width="6.549" height="74.826" x="21.086" y="56.086" class="st17"/><rect width="22.333" height="93.841" x="257.333" y="44.158" class="st9"/><rect width="8.159" height="79.668" x="264.42" y="51.245" class="st9"/></g><g id="_x30_-OutlinesLegs" opacity=".3"><rect width="246.614" height="127.559" x="23.666" y="28" class="st4"/><circle cx="270.281" cy="28" r="6.803" class="st5"/><circle cx="270.281" cy="155.559" r="6.803" class="st5"/><circle cx="23.666" cy="155.559" r="6.803" class="st5"/><circle cx="23.666" cy="28" r="6.803" class="st5"/><circle cx="270.28" cy="28.001" r="2.834" class="st1"/><circle cx="270.28" cy="155.559" r="2.834" class="st1"/><circle cx="23.666" cy="155.559" r="2.835" class="st1"/><circle cx="23.666" cy="28" r="2.835" class="st1"/></g><g id="_x30_-Outlines" class="st16"><path d="M258.7705,166.5083l-4.9375,3.1582H38.4995l-4.729-3.1582h-9.0991c-6.2617,0-11.3384-5.0762-11.3384-11.3379 V28.1777c0-6.2617,5.0767-11.3384,11.3384-11.3384h245.7642c6.2617,0,11.3389,5.0767,11.3389,11.3384v126.9927 c0,6.2617-5.0771,11.3379-11.3389,11.3379H258.7705z" class="st18"/><path d="M263.251,148.8442c0,3.1309-2.5381,5.6689-5.6689,5.6689H36.7632c-3.1313,0-5.6694-2.5381-5.6694-5.6689 V29.5059c0-3.1313,2.5381-5.6694,5.6694-5.6694H257.582c3.1309,0,5.6689,2.5381,5.6689,5.6694V148.8442z" class="st15"/><path d="M123.333,175.1665l-5.7534-2.9258H25.647c-9.5625,0-17.314-7.6133-17.314-17.0078v-3.2324l3-4.834v-51.333 l-1.5-2.167v-32.333l1.5-2.8345V35.3335l-3-6.1665v-1.4927c0-9.3931,7.7515-17.0078,17.314-17.0078h244.7065 c9.5625,0,17.3135,7.6147,17.3135,17.0078v1.3252L284.5,34.833v111.3335l3.167,6.334v2.7324 c0,9.3945-7.751,17.0078-17.3135,17.0078h-11.9492H255.5l-5.167,2.9258H123.333z" class="st2"/></g></svg>